<mxfile host="app.diagrams.net" modified="2022-01-21T12:39:59.334Z" agent="5.0 (Windows)" etag="Q7YwPJwGHmgkBdCbevDS" version="16.2.4" type="github">
  <diagram name="Page-1" id="e7e014a7-5840-1c2e-5031-d8a46d1fe8dd">
    <mxGraphModel dx="1673" dy="918" grid="1" gridSize="10" guides="1" tooltips="1" connect="1" arrows="1" fold="1" page="1" pageScale="1" pageWidth="1169" pageHeight="826" background="none" math="0" shadow="0">
      <root>
        <mxCell id="0" />
        <mxCell id="1" parent="0" />
        <mxCell id="0Q50M8M0-IzvEuGsnaaG-41" value="" style="ellipse;whiteSpace=wrap;html=1;fillColor=#000000;" vertex="1" parent="1">
          <mxGeometry x="570" y="100" width="20" height="20" as="geometry" />
        </mxCell>
        <mxCell id="0Q50M8M0-IzvEuGsnaaG-42" value="" style="endArrow=classic;html=1;rounded=0;" edge="1" parent="1" source="0Q50M8M0-IzvEuGsnaaG-41">
          <mxGeometry width="50" height="50" relative="1" as="geometry">
            <mxPoint x="1000" y="450" as="sourcePoint" />
            <mxPoint x="580" y="190" as="targetPoint" />
          </mxGeometry>
        </mxCell>
        <mxCell id="0Q50M8M0-IzvEuGsnaaG-44" value="LightBandit_Idle" style="rounded=1;whiteSpace=wrap;html=1;" vertex="1" parent="1">
          <mxGeometry x="520" y="190" width="120" height="60" as="geometry" />
        </mxCell>
        <mxCell id="0Q50M8M0-IzvEuGsnaaG-45" value="LightBandit_Run" style="rounded=1;whiteSpace=wrap;html=1;" vertex="1" parent="1">
          <mxGeometry x="460" y="320" width="120" height="60" as="geometry" />
        </mxCell>
        <mxCell id="0Q50M8M0-IzvEuGsnaaG-46" value="LightBandit_Attack" style="rounded=1;whiteSpace=wrap;html=1;" vertex="1" parent="1">
          <mxGeometry x="670" y="320" width="120" height="60" as="geometry" />
        </mxCell>
        <mxCell id="0Q50M8M0-IzvEuGsnaaG-47" value="LightBandit_Hurt" style="rounded=1;whiteSpace=wrap;html=1;" vertex="1" parent="1">
          <mxGeometry x="500" y="530" width="120" height="60" as="geometry" />
        </mxCell>
        <mxCell id="0Q50M8M0-IzvEuGsnaaG-48" value="LightBandit_Death" style="rounded=1;whiteSpace=wrap;html=1;" vertex="1" parent="1">
          <mxGeometry x="500" y="660" width="120" height="60" as="geometry" />
        </mxCell>
        <mxCell id="0Q50M8M0-IzvEuGsnaaG-51" value="" style="endArrow=classic;html=1;rounded=0;exitX=0.5;exitY=0;exitDx=0;exitDy=0;entryX=1;entryY=0.5;entryDx=0;entryDy=0;" edge="1" parent="1" source="0Q50M8M0-IzvEuGsnaaG-46" target="0Q50M8M0-IzvEuGsnaaG-44">
          <mxGeometry width="50" height="50" relative="1" as="geometry">
            <mxPoint x="720" y="280" as="sourcePoint" />
            <mxPoint x="770" y="230" as="targetPoint" />
            <Array as="points">
              <mxPoint x="730" y="220" />
            </Array>
          </mxGeometry>
        </mxCell>
        <mxCell id="0Q50M8M0-IzvEuGsnaaG-53" value="" style="endArrow=classic;html=1;rounded=0;exitX=0;exitY=0.5;exitDx=0;exitDy=0;entryX=0.25;entryY=0;entryDx=0;entryDy=0;" edge="1" parent="1" source="0Q50M8M0-IzvEuGsnaaG-44" target="0Q50M8M0-IzvEuGsnaaG-45">
          <mxGeometry width="50" height="50" relative="1" as="geometry">
            <mxPoint x="530" y="440" as="sourcePoint" />
            <mxPoint x="580" y="390" as="targetPoint" />
            <Array as="points">
              <mxPoint x="490" y="220" />
            </Array>
          </mxGeometry>
        </mxCell>
        <mxCell id="0Q50M8M0-IzvEuGsnaaG-54" value="" style="endArrow=classic;html=1;rounded=0;exitX=0.75;exitY=0;exitDx=0;exitDy=0;entryX=0.25;entryY=1;entryDx=0;entryDy=0;" edge="1" parent="1" source="0Q50M8M0-IzvEuGsnaaG-45" target="0Q50M8M0-IzvEuGsnaaG-44">
          <mxGeometry width="50" height="50" relative="1" as="geometry">
            <mxPoint x="530" y="440" as="sourcePoint" />
            <mxPoint x="580" y="390" as="targetPoint" />
          </mxGeometry>
        </mxCell>
        <mxCell id="0Q50M8M0-IzvEuGsnaaG-55" value="" style="endArrow=classic;html=1;rounded=0;exitX=0.25;exitY=1;exitDx=0;exitDy=0;entryX=0;entryY=0.5;entryDx=0;entryDy=0;" edge="1" parent="1" source="0Q50M8M0-IzvEuGsnaaG-45" target="0Q50M8M0-IzvEuGsnaaG-47">
          <mxGeometry width="50" height="50" relative="1" as="geometry">
            <mxPoint x="530" y="440" as="sourcePoint" />
            <mxPoint x="580" y="390" as="targetPoint" />
            <Array as="points">
              <mxPoint x="490" y="430" />
              <mxPoint x="460" y="430" />
              <mxPoint x="460" y="560" />
            </Array>
          </mxGeometry>
        </mxCell>
        <mxCell id="0Q50M8M0-IzvEuGsnaaG-56" value="" style="endArrow=classic;html=1;rounded=0;exitX=0.413;exitY=0.03;exitDx=0;exitDy=0;entryX=0.75;entryY=1;entryDx=0;entryDy=0;exitPerimeter=0;" edge="1" parent="1" source="0Q50M8M0-IzvEuGsnaaG-47" target="0Q50M8M0-IzvEuGsnaaG-45">
          <mxGeometry width="50" height="50" relative="1" as="geometry">
            <mxPoint x="530" y="440" as="sourcePoint" />
            <mxPoint x="580" y="390" as="targetPoint" />
          </mxGeometry>
        </mxCell>
        <mxCell id="0Q50M8M0-IzvEuGsnaaG-57" value="" style="endArrow=classic;html=1;rounded=0;exitX=0.5;exitY=1;exitDx=0;exitDy=0;entryX=0.5;entryY=0;entryDx=0;entryDy=0;" edge="1" parent="1" source="0Q50M8M0-IzvEuGsnaaG-47" target="0Q50M8M0-IzvEuGsnaaG-48">
          <mxGeometry width="50" height="50" relative="1" as="geometry">
            <mxPoint x="530" y="470" as="sourcePoint" />
            <mxPoint x="580" y="420" as="targetPoint" />
          </mxGeometry>
        </mxCell>
        <mxCell id="0Q50M8M0-IzvEuGsnaaG-58" value="" style="endArrow=classic;html=1;rounded=0;exitX=0.5;exitY=1;exitDx=0;exitDy=0;entryX=0.75;entryY=0;entryDx=0;entryDy=0;" edge="1" parent="1" source="0Q50M8M0-IzvEuGsnaaG-46" target="0Q50M8M0-IzvEuGsnaaG-47">
          <mxGeometry width="50" height="50" relative="1" as="geometry">
            <mxPoint x="620" y="540" as="sourcePoint" />
            <mxPoint x="670" y="490" as="targetPoint" />
            <Array as="points">
              <mxPoint x="730" y="440" />
              <mxPoint x="590" y="440" />
            </Array>
          </mxGeometry>
        </mxCell>
        <mxCell id="0Q50M8M0-IzvEuGsnaaG-60" value="" style="endArrow=classic;html=1;rounded=0;exitX=1;exitY=0.5;exitDx=0;exitDy=0;entryX=0;entryY=0.5;entryDx=0;entryDy=0;" edge="1" parent="1" source="0Q50M8M0-IzvEuGsnaaG-48">
          <mxGeometry width="50" height="50" relative="1" as="geometry">
            <mxPoint x="640" y="580" as="sourcePoint" />
            <mxPoint x="730" y="690" as="targetPoint" />
          </mxGeometry>
        </mxCell>
        <mxCell id="0Q50M8M0-IzvEuGsnaaG-61" value="Any State" style="rounded=0;whiteSpace=wrap;html=1;" vertex="1" parent="1">
          <mxGeometry x="740" y="540" width="80" height="40" as="geometry" />
        </mxCell>
        <mxCell id="0Q50M8M0-IzvEuGsnaaG-62" value="" style="endArrow=classic;html=1;rounded=0;exitX=0;exitY=0.5;exitDx=0;exitDy=0;entryX=1;entryY=0.5;entryDx=0;entryDy=0;" edge="1" parent="1" source="0Q50M8M0-IzvEuGsnaaG-61" target="0Q50M8M0-IzvEuGsnaaG-47">
          <mxGeometry width="50" height="50" relative="1" as="geometry">
            <mxPoint x="640" y="580" as="sourcePoint" />
            <mxPoint x="690" y="530" as="targetPoint" />
          </mxGeometry>
        </mxCell>
        <mxCell id="0Q50M8M0-IzvEuGsnaaG-63" value="" style="endArrow=classic;html=1;rounded=0;exitX=0.5;exitY=1;exitDx=0;exitDy=0;entryX=1;entryY=0;entryDx=0;entryDy=0;" edge="1" parent="1" source="0Q50M8M0-IzvEuGsnaaG-61" target="0Q50M8M0-IzvEuGsnaaG-48">
          <mxGeometry width="50" height="50" relative="1" as="geometry">
            <mxPoint x="640" y="580" as="sourcePoint" />
            <mxPoint x="690" y="530" as="targetPoint" />
          </mxGeometry>
        </mxCell>
        <mxCell id="0Q50M8M0-IzvEuGsnaaG-64" value="" style="endArrow=classic;html=1;rounded=0;exitX=1;exitY=0.25;exitDx=0;exitDy=0;entryX=0;entryY=0.25;entryDx=0;entryDy=0;" edge="1" parent="1" source="0Q50M8M0-IzvEuGsnaaG-45" target="0Q50M8M0-IzvEuGsnaaG-46">
          <mxGeometry width="50" height="50" relative="1" as="geometry">
            <mxPoint x="640" y="490" as="sourcePoint" />
            <mxPoint x="690" y="440" as="targetPoint" />
          </mxGeometry>
        </mxCell>
        <mxCell id="0Q50M8M0-IzvEuGsnaaG-65" value="" style="endArrow=classic;html=1;rounded=0;exitX=-0.019;exitY=0.657;exitDx=0;exitDy=0;exitPerimeter=0;" edge="1" parent="1" source="0Q50M8M0-IzvEuGsnaaG-46">
          <mxGeometry width="50" height="50" relative="1" as="geometry">
            <mxPoint x="640" y="490" as="sourcePoint" />
            <mxPoint x="580" y="359" as="targetPoint" />
          </mxGeometry>
        </mxCell>
        <mxCell id="0Q50M8M0-IzvEuGsnaaG-66" value="" style="ellipse;html=1;shape=endState;fillColor=#000000;strokeColor=#000000;" vertex="1" parent="1">
          <mxGeometry x="730" y="675" width="30" height="30" as="geometry" />
        </mxCell>
        <mxCell id="0Q50M8M0-IzvEuGsnaaG-67" value="&lt;font style=&quot;font-size: 12px&quot;&gt;&lt;span style=&quot;font-weight: normal&quot;&gt;&lt;font style=&quot;font-size: 12px&quot;&gt;Detected is false&lt;/font&gt;&lt;/span&gt;&lt;br&gt;&lt;/font&gt;" style="text;strokeColor=none;fillColor=none;html=1;fontSize=24;fontStyle=1;verticalAlign=middle;align=center;" vertex="1" parent="1">
          <mxGeometry x="740" y="250" width="90" height="20" as="geometry" />
        </mxCell>
        <mxCell id="0Q50M8M0-IzvEuGsnaaG-68" value="&lt;font style=&quot;font-size: 12px&quot;&gt;&lt;span style=&quot;font-weight: normal&quot;&gt;&lt;font style=&quot;font-size: 12px&quot;&gt;Detected is true&lt;/font&gt;&lt;/span&gt;&lt;br&gt;&lt;/font&gt;" style="text;strokeColor=none;fillColor=none;html=1;fontSize=24;fontStyle=1;verticalAlign=middle;align=center;" vertex="1" parent="1">
          <mxGeometry x="420" y="190" width="90" height="20" as="geometry" />
        </mxCell>
        <mxCell id="0Q50M8M0-IzvEuGsnaaG-69" value="&lt;font style=&quot;font-size: 12px&quot;&gt;&lt;span style=&quot;font-weight: normal&quot;&gt;&lt;font style=&quot;font-size: 12px&quot;&gt;Detected is false&lt;/font&gt;&lt;/span&gt;&lt;br&gt;&lt;/font&gt;" style="text;strokeColor=none;fillColor=none;html=1;fontSize=24;fontStyle=1;verticalAlign=middle;align=center;" vertex="1" parent="1">
          <mxGeometry x="560" y="260" width="90" height="20" as="geometry" />
        </mxCell>
        <mxCell id="0Q50M8M0-IzvEuGsnaaG-71" value="&lt;font style=&quot;font-size: 12px&quot;&gt;&lt;span style=&quot;font-weight: normal&quot;&gt;&lt;font style=&quot;font-size: 12px&quot;&gt;Detected is true&lt;/font&gt;&lt;/span&gt;&lt;br&gt;&lt;/font&gt;" style="text;strokeColor=none;fillColor=none;html=1;fontSize=24;fontStyle=1;verticalAlign=middle;align=center;" vertex="1" parent="1">
          <mxGeometry x="580" y="370" width="90" height="20" as="geometry" />
        </mxCell>
        <mxCell id="0Q50M8M0-IzvEuGsnaaG-72" value="&lt;font style=&quot;font-size: 12px&quot;&gt;&lt;span style=&quot;font-weight: normal&quot;&gt;&lt;font style=&quot;font-size: 12px&quot;&gt;Attack&lt;/font&gt;&lt;/span&gt;&lt;br&gt;&lt;/font&gt;" style="text;strokeColor=none;fillColor=none;html=1;fontSize=24;fontStyle=1;verticalAlign=middle;align=center;" vertex="1" parent="1">
          <mxGeometry x="580" y="310" width="90" height="20" as="geometry" />
        </mxCell>
        <mxCell id="0Q50M8M0-IzvEuGsnaaG-73" value="&lt;font style=&quot;font-size: 12px&quot;&gt;&lt;span style=&quot;font-weight: normal&quot;&gt;&lt;font style=&quot;font-size: 12px&quot;&gt;Attack&lt;/font&gt;&lt;/span&gt;&lt;br&gt;&lt;/font&gt;" style="text;strokeColor=none;fillColor=none;html=1;fontSize=24;fontStyle=1;verticalAlign=middle;align=center;" vertex="1" parent="1">
          <mxGeometry x="620" y="450" width="90" height="20" as="geometry" />
        </mxCell>
        <mxCell id="0Q50M8M0-IzvEuGsnaaG-75" value="&lt;font style=&quot;font-size: 12px&quot;&gt;&lt;span style=&quot;font-weight: normal&quot;&gt;&lt;font style=&quot;font-size: 12px&quot;&gt;Detected is true&lt;br&gt;&lt;/font&gt;&lt;/span&gt;&lt;/font&gt;" style="text;strokeColor=none;fillColor=none;html=1;fontSize=24;fontStyle=1;verticalAlign=middle;align=center;" vertex="1" parent="1">
          <mxGeometry x="460" y="460" width="90" height="20" as="geometry" />
        </mxCell>
        <mxCell id="0Q50M8M0-IzvEuGsnaaG-77" value="&lt;font style=&quot;font-size: 12px&quot;&gt;&lt;span style=&quot;font-weight: normal&quot;&gt;&lt;font style=&quot;font-size: 12px&quot;&gt;Hurt&lt;/font&gt;&lt;/span&gt;&lt;/font&gt;" style="text;strokeColor=none;fillColor=none;html=1;fontSize=24;fontStyle=1;verticalAlign=middle;align=center;" vertex="1" parent="1">
          <mxGeometry x="640" y="530" width="90" height="20" as="geometry" />
        </mxCell>
        <mxCell id="0Q50M8M0-IzvEuGsnaaG-78" value="&lt;font style=&quot;font-size: 12px&quot;&gt;&lt;span style=&quot;font-weight: normal&quot;&gt;&lt;font style=&quot;font-size: 12px&quot;&gt;Hurt&lt;/font&gt;&lt;/span&gt;&lt;/font&gt;" style="text;strokeColor=none;fillColor=none;html=1;fontSize=24;fontStyle=1;verticalAlign=middle;align=center;" vertex="1" parent="1">
          <mxGeometry x="410" y="410" width="90" height="20" as="geometry" />
        </mxCell>
        <mxCell id="0Q50M8M0-IzvEuGsnaaG-79" value="&lt;font style=&quot;font-size: 12px&quot;&gt;&lt;span style=&quot;font-weight: normal&quot;&gt;&lt;font style=&quot;font-size: 12px&quot;&gt;Dead is true&lt;br&gt;&lt;/font&gt;&lt;/span&gt;&lt;/font&gt;" style="text;strokeColor=none;fillColor=none;html=1;fontSize=24;fontStyle=1;verticalAlign=middle;align=center;" vertex="1" parent="1">
          <mxGeometry x="685" y="630" width="90" height="20" as="geometry" />
        </mxCell>
        <mxCell id="0Q50M8M0-IzvEuGsnaaG-80" value="&lt;font style=&quot;font-size: 12px&quot;&gt;&lt;span style=&quot;font-weight: normal&quot;&gt;&lt;font style=&quot;font-size: 12px&quot;&gt;Dead is true&lt;br&gt;&lt;/font&gt;&lt;/span&gt;&lt;/font&gt;" style="text;strokeColor=none;fillColor=none;html=1;fontSize=24;fontStyle=1;verticalAlign=middle;align=center;" vertex="1" parent="1">
          <mxGeometry x="460" y="610" width="90" height="20" as="geometry" />
        </mxCell>
        <mxCell id="0Q50M8M0-IzvEuGsnaaG-82" value="&lt;font style=&quot;font-size: 12px&quot;&gt;&lt;span style=&quot;font-weight: normal&quot;&gt;&lt;font style=&quot;font-size: 12px&quot;&gt;Dead is true&lt;br&gt;&lt;/font&gt;&lt;/span&gt;&lt;/font&gt;" style="text;strokeColor=none;fillColor=none;html=1;fontSize=24;fontStyle=1;verticalAlign=middle;align=center;" vertex="1" parent="1">
          <mxGeometry x="630" y="700" width="90" height="20" as="geometry" />
        </mxCell>
      </root>
    </mxGraphModel>
  </diagram>
</mxfile>
